<svg xmlns="http://www.w3.org/2000/svg" viewBox="0 0 1200 260" role="img" aria-labelledby="title desc">
  <title id="title">Thibautdqb premium T-Rex banner</title>
  <desc id="desc">A premium animated banner with a polished pixel T-Rex, coordinated jumps and clean professional styling for Thibaut de Quatrebarbes.</desc>
  <defs>
    <linearGradient id="bg" x1="0" y1="0" x2="1" y2="1">
      <stop offset="0" stop-color="#060b12"/>
      <stop offset="0.26" stop-color="#131125"/>
      <stop offset="0.58" stop-color="#2f163a"/>
      <stop offset="0.82" stop-color="#6a2740"/>
      <stop offset="1" stop-color="#11161e"/>
    </linearGradient>
    <radialGradient id="sun" cx="50%" cy="50%" r="50%">
      <stop offset="0" stop-color="#ffe4bf" stop-opacity="1"/>
      <stop offset="0.38" stop-color="#ff9f6b" stop-opacity="0.76"/>
      <stop offset="0.75" stop-color="#b996ff" stop-opacity="0.17"/>
      <stop offset="1" stop-color="#b996ff" stop-opacity="0.01"/>
    </radialGradient>
    <filter id="glow" x="-80%" y="-80%" width="260%" height="260%">
      <feGaussianBlur stdDeviation="3.8" result="blur"/>
      <feMerge><feMergeNode in="blur"/><feMergeNode in="SourceGraphic"/></feMerge>
    </filter>
    <clipPath id="screen"><rect width="1200" height="260" rx="18"/></clipPath>
  </defs>
  <g clip-path="url(#screen)">
    <rect width="1200" height="260" rx="18" fill="url(#bg)"/>

    <g opacity="0.07" stroke="#79f4b0" stroke-width="1">
      <path d="M0 36H1200M0 72H1200M0 108H1200M0 144H1200M0 180H1200M0 216H1200"/>
      <path d="M90 0V260M180 0V260M270 0V260M360 0V260M450 0V260M540 0V260M630 0V260M720 0V260M810 0V260M900 0V260M990 0V260M1080 0V260"/>
    </g>

    <g opacity="0.78"><circle cx="952" cy="124" r="94" fill="url(#sun)" filter="url(#glow)"/><path d="M874 112H1032M882 130H1024M890 148H1016M898 166H1008" stroke="#ffe0bc" stroke-width="2" opacity="0.28"/></g>
    <g opacity="0.62"><path d="M694 186L824 126L922 186Z" fill="#1c1b32"/><path d="M810 186L950 109L1068 186Z" fill="#251a3c"/><path d="M934 186L1084 132L1204 186Z" fill="#311b4d"/><animateTransform attributeName="transform" type="translate" values="0 0;-42 0;0 0" dur="26s" repeatCount="indefinite"/></g>
    <g opacity="0.20"><path d="M684 190L804 151L900 190Z" fill="#422555"/><path d="M830 190L986 130L1122 190Z" fill="#532a5f"/><animateTransform attributeName="transform" type="translate" values="0 0;-78 0;0 0" dur="17s" repeatCount="indefinite"/></g>

    <g filter="url(#glow)"><text y="82" fill="#f8f9fc" font-family="ui-monospace, SFMono-Regular, Menlo, Consolas, monospace" font-size="26" font-weight="700" letter-spacing="1.42">THIBAUT DE QUATREBARBES  •  AI ENGINEER  •  QUANT RESEARCH  •  DATA SYSTEMS  •  <animate attributeName="x" from="1200" to="-1705" dur="12.2s" repeatCount="indefinite"/></text></g>
    <text x="28" y="110" fill="#d7dde6" font-family="ui-monospace, SFMono-Regular, Menlo, Consolas, monospace" font-size="14">applied AI → quant research → data systems → production-grade execution</text>

    <line x1="0" y1="218" x2="1200" y2="218" stroke="#ecf1f3" stroke-width="3" opacity="0.98"/>
    <path d="M0 231H1200" stroke="#79f4b0" stroke-width="3" stroke-dasharray="30 16" opacity="0.46"><animate attributeName="stroke-dashoffset" from="0" to="-92" dur="0.90s" repeatCount="indefinite"/></path>

    <g transform="translate(156 0)">
      <g>
        <animateTransform attributeName="transform" type="translate" dur="8.6s" repeatCount="indefinite" calcMode="spline" keyTimes="0.00000;0.03333;0.06667;0.10000;0.13333;0.16667;0.20000;0.23333;0.26667;0.30000;0.33333;0.36667;0.40000;0.43333;0.46667;0.50000;0.53333;0.56667;0.60000;0.63333;0.66667;0.70000;0.73333;0.76667;0.80000;0.83333;0.86667;0.90000;0.93333;0.96667;1.00000" values="0 -0.0;0 -0.0;0 -0.0;0 -0.0;0 -0.0;0 -75.3;0 -62.0;0 -0.0;0 -0.0;0 -0.0;0 -0.0;0 -0.0;0 -76.7;0 -60.0;0 -0.0;0 -0.0;0 -0.0;0 -0.0;0 -0.0;0 -78.0;0 -58.0;0 -0.0;0 -0.0;0 -0.0;0 -83.4;0 -47.3;0 -0.0;0 -0.0;0 -0.0;0 -0.0;0 -0.0" keySplines="0.24 0.0 0.24 1.0;0.24 0.0 0.24 1.0;0.24 0.0 0.24 1.0;0.24 0.0 0.24 1.0;0.24 0.0 0.24 1.0;0.24 0.0 0.24 1.0;0.24 0.0 0.24 1.0;0.24 0.0 0.24 1.0;0.24 0.0 0.24 1.0;0.24 0.0 0.24 1.0;0.24 0.0 0.24 1.0;0.24 0.0 0.24 1.0;0.24 0.0 0.24 1.0;0.24 0.0 0.24 1.0;0.24 0.0 0.24 1.0;0.24 0.0 0.24 1.0;0.24 0.0 0.24 1.0;0.24 0.0 0.24 1.0;0.24 0.0 0.24 1.0;0.24 0.0 0.24 1.0;0.24 0.0 0.24 1.0;0.24 0.0 0.24 1.0;0.24 0.0 0.24 1.0;0.24 0.0 0.24 1.0;0.24 0.0 0.24 1.0;0.24 0.0 0.24 1.0;0.24 0.0 0.24 1.0;0.24 0.0 0.24 1.0;0.24 0.0 0.24 1.0;0.24 0.0 0.24 1.0"/>
        <ellipse cx="58" cy="79" rx="19" ry="3.5" fill="#ffd9a5" opacity="0.46"><animate attributeName="rx" dur="8.6s" repeatCount="indefinite" calcMode="linear" keyTimes="0.00000;0.03333;0.06667;0.10000;0.13333;0.16667;0.20000;0.23333;0.26667;0.30000;0.33333;0.36667;0.40000;0.43333;0.46667;0.50000;0.53333;0.56667;0.60000;0.63333;0.66667;0.70000;0.73333;0.76667;0.80000;0.83333;0.86667;0.90000;0.93333;0.96667;1.00000" values="18;18;18;17;16;15;14;14;14;15;16;17;18;18;18;18;17;16;15;14;14;14;15;16;17;18;18;18;18;18;18"/></ellipse>
        <g transform="translate(0 144)" filter="url(#glow)">
          <g fill="#79f4b0"><rect x="0" y="39" width="7" height="5"/><rect x="6" y="33" width="9" height="7"/><rect x="13" y="27" width="11" height="8"/><rect x="23" y="22" width="12" height="10"/><rect x="34" y="18" width="13" height="9"/><rect x="38" y="18" width="46" height="34"/><rect x="54" y="11" width="18" height="11"/><rect x="72" y="14" width="12" height="14"/><rect x="82" y="9" width="13" height="22"/><rect x="92" y="2" width="34" height="25"/><rect x="121" y="12" width="8" height="8"/><rect x="108" y="19" width="18" height="7"/><rect x="76" y="33" width="13" height="6"/><rect x="86" y="38" width="6" height="5"/></g><g fill="#52d591"><rect x="44" y="30" width="28" height="13"/><rect x="55" y="22" width="16" height="8"/><rect x="82" y="14" width="8" height="13"/><rect x="93" y="12" width="16" height="8"/><rect x="19" y="29" width="8" height="5"/><rect x="57" y="13" width="7" height="4"/></g><g fill="#c4ffe3"><rect x="45" y="14" width="18" height="5"/><rect x="95" y="5" width="13" height="4"/><rect x="7" y="34" width="5" height="3"/><rect x="79" y="34" width="5" height="3"/><rect x="108" y="20" width="5" height="3"/></g>
          <rect x="96" y="18" width="13" height="7" fill="#19152d"/>
          <rect x="113" y="9" width="4" height="4" fill="#060b12"/>
          <rect x="120" y="15" width="3" height="2" fill="#19152d"/>
          <rect x="103" y="19" width="7" height="4" fill="#ffe3be" opacity="0.92"/>
          <g fill="#79f4b0"><animate attributeName="opacity" dur="8.6s" repeatCount="indefinite" calcMode="linear" keyTimes="0.00000;0.03333;0.06667;0.10000;0.13333;0.16667;0.20000;0.23333;0.26667;0.30000;0.33333;0.36667;0.40000;0.43333;0.46667;0.50000;0.53333;0.56667;0.60000;0.63333;0.66667;0.70000;0.73333;0.76667;0.80000;0.83333;0.86667;0.90000;0.93333;0.96667;1.00000" values="1.00;1.00;1.00;1.00;1.00;0.14;0.30;1.00;1.00;1.00;1.00;1.00;0.13;0.32;1.00;1.00;1.00;1.00;1.00;0.11;0.34;1.00;1.00;1.00;0.05;0.46;1.00;1.00;1.00;1.00;1.00"/><g><animate attributeName="opacity" values="1;0;0;0;1" keyTimes="0;0.249;0.50;0.749;1" dur="0.30s" repeatCount="indefinite" begin="0.0s"/><rect x="47" y="51" width="10" height="11"/><rect x="44" y="61" width="22" height="5"/><rect x="68" y="48" width="10" height="23"/><rect x="65" y="69" width="21" height="5"/></g><g><animate attributeName="opacity" values="1;0;0;0;1" keyTimes="0;0.249;0.50;0.749;1" dur="0.30s" repeatCount="indefinite" begin="0.075s"/><rect x="47" y="49" width="10" height="17"/><rect x="47" y="64" width="21" height="5"/><rect x="68" y="51" width="10" height="15"/><rect x="62" y="63" width="21" height="5"/></g><g><animate attributeName="opacity" values="1;0;0;0;1" keyTimes="0;0.249;0.50;0.749;1" dur="0.30s" repeatCount="indefinite" begin="0.15s"/><rect x="47" y="48" width="10" height="22"/><rect x="52" y="68" width="20" height="5"/><rect x="68" y="52" width="10" height="11"/><rect x="64" y="63" width="21" height="5"/></g><g><animate attributeName="opacity" values="1;0;0;0;1" keyTimes="0;0.249;0.50;0.749;1" dur="0.30s" repeatCount="indefinite" begin="0.22499999999999998s"/><rect x="47" y="51" width="10" height="15"/><rect x="50" y="65" width="21" height="5"/><rect x="68" y="48" width="10" height="19"/><rect x="63" y="67" width="21" height="5"/></g></g><g fill="#79f4b0"><animate attributeName="opacity" dur="8.6s" repeatCount="indefinite" calcMode="linear" keyTimes="0.00000;0.03333;0.06667;0.10000;0.13333;0.16667;0.20000;0.23333;0.26667;0.30000;0.33333;0.36667;0.40000;0.43333;0.46667;0.50000;0.53333;0.56667;0.60000;0.63333;0.66667;0.70000;0.73333;0.76667;0.80000;0.83333;0.86667;0.90000;0.93333;0.96667;1.00000" values="0.00;0.00;0.00;0.00;0.00;0.86;0.70;0.00;0.00;0.00;0.00;0.00;0.87;0.68;0.00;0.00;0.00;0.00;0.00;0.89;0.66;0.00;0.00;0.00;0.95;0.54;0.00;0.00;0.00;0.00;0.00"/><rect x="48" y="55" width="10" height="12"/><rect x="46" y="66" width="18" height="5"/><rect x="69" y="55" width="10" height="12"/><rect x="67" y="66" width="18" height="5"/></g></g></g></g></g><g fill="#f5c58a" filter="url(#glow)"><g transform="translate(520 0)"><g transform="translate(0 198)"><rect x="0" y="8" width="10" height="8" rx="2"/><rect x="8" y="4" width="12" height="12" rx="2"/><rect x="18" y="0" width="13" height="16" rx="2"/></g><animateTransform attributeName="transform" type="translate" values="0 0;-1720.0 0" dur="8.6s" repeatCount="indefinite"/></g></g><g fill="#bb9cff" filter="url(#glow)"><g transform="translate(920 0)"><g transform="translate(0 160)"><rect x="8" y="18" width="10" height="40" rx="2"/><rect x="26" y="0" width="12" height="58" rx="2"/><rect x="45" y="18" width="10" height="40" rx="2"/><rect x="0" y="28" width="8" height="10" rx="2"/><rect x="18" y="8" width="8" height="14" rx="2"/><rect x="38" y="28" width="7" height="10" rx="2"/></g><animateTransform attributeName="transform" type="translate" values="0 0;-1720.0 0" dur="8.6s" repeatCount="indefinite"/></g></g><g fill="#ff9866" filter="url(#glow)"><g transform="translate(1320 0)"><g transform="translate(0 149)"><rect x="14" y="0" width="12" height="69" rx="2"/><rect x="2" y="24" width="12" height="10" rx="2"/><rect x="2" y="11" width="8" height="23" rx="2"/><rect x="26" y="31" width="12" height="10" rx="2"/><rect x="33" y="18" width="7" height="23" rx="2"/></g><animateTransform attributeName="transform" type="translate" values="0 0;-1720.0 0" dur="8.6s" repeatCount="indefinite"/></g></g><g fill="#7af3b0" filter="url(#glow)"><g transform="translate(1600 0)"><g transform="translate(0 154)"><rect x="8" y="18" width="10" height="46" rx="2"/><rect x="26" y="8" width="11" height="56" rx="2"/><rect x="46" y="24" width="10" height="40" rx="2"/><rect x="0" y="28" width="8" height="12" rx="2"/><rect x="18" y="0" width="8" height="16" rx="2"/><rect x="38" y="18" width="8" height="12" rx="2"/></g><animateTransform attributeName="transform" type="translate" values="0 0;-1720.0 0" dur="8.6s" repeatCount="indefinite"/></g></g>
    <text x="1170" y="112" text-anchor="end" fill="#dce2eb" font-family="ui-monospace, SFMono-Regular, Menlo, Consolas, monospace" font-size="13">THIBAUT DE QUATREBARBES</text>
    <text x="1170" y="132" text-anchor="end" fill="#c5ced8" font-family="ui-monospace, SFMono-Regular, Menlo, Consolas, monospace" font-size="12">AI × FINANCE × ENGINEERING</text>
    <text x="1170" y="152" text-anchor="end" fill="#79f4b0" font-family="ui-monospace, SFMono-Regular, Menlo, Consolas, monospace" font-size="12">thibautdqb</text>

    <rect width="1200" height="260" rx="18" fill="none" stroke="#79f4b0" stroke-opacity="0.18"/>
  </g>
</svg>